<svg width="56" height="56" viewBox="0 0 56 56" fill="none" xmlns="http://www.w3.org/2000/svg">
<path d="M37.25 14.5H33.75V12.75C33.75 12.2859 33.5656 11.8408 33.2374 11.5126C32.9093 11.1844 32.4641 11 32 11C31.5359 11 31.0907 11.1844 30.7626 11.5126C30.4344 11.8408 30.25 12.2859 30.25 12.75V14.5H25V12.75C25 12.2859 24.8156 11.8408 24.4874 11.5126C24.1593 11.1844 23.7141 11 23.25 11C22.7859 11 22.3408 11.1844 22.0126 11.5126C21.6844 11.8408 21.5 12.2859 21.5 12.75V14.5H16.25V12.75C16.25 12.2859 16.0656 11.8408 15.7374 11.5126C15.4092 11.1844 14.9641 11 14.5 11C14.0359 11 13.5908 11.1844 13.2626 11.5126C12.9344 11.8408 12.75 12.2859 12.75 12.75V14.5H9.25C7.85761 14.5 6.52226 15.0531 5.53769 16.0377C4.55312 17.0223 4 18.3576 4 19.75V44.25C4 45.6424 4.55312 46.9777 5.53769 47.9623C6.52226 48.9469 7.85761 49.5 9.25 49.5H37.25C38.6424 49.5 39.9777 48.9469 40.9623 47.9623C41.9469 46.9777 42.5 45.6424 42.5 44.25V19.75C42.5 18.3576 41.9469 17.0223 40.9623 16.0377C39.9777 15.0531 38.6424 14.5 37.25 14.5ZM7.5 19.75C7.5 19.2859 7.68437 18.8408 8.01256 18.5126C8.34075 18.1844 8.78587 18 9.25 18H12.75V19.75C12.75 20.2141 12.9344 20.6592 13.2626 20.9874C13.5908 21.3156 14.0359 21.5 14.5 21.5C14.9641 21.5 15.4092 21.3156 15.7374 20.9874C16.0656 20.6592 16.25 20.2141 16.25 19.75V18H21.5V19.75C21.5 20.2141 21.6844 20.6592 22.0126 20.9874C22.3408 21.3156 22.7859 21.5 23.25 21.5C23.7141 21.5 24.1593 21.3156 24.4874 20.9874C24.8156 20.6592 25 20.2141 25 19.75V18H30.25V19.75C30.25 20.2141 30.4344 20.6592 30.7626 20.9874C31.0907 21.3156 31.5359 21.5 32 21.5C32.4641 21.5 32.9093 21.3156 33.2374 20.9874C33.5656 20.6592 33.75 20.2141 33.75 19.75V18H37.25C37.7141 18 38.1592 18.1844 38.4874 18.5126C38.8156 18.8408 39 19.2859 39 19.75V25H7.5V19.75ZM39 44.25C39 44.7141 38.8156 45.1592 38.4874 45.4874C38.1592 45.8156 37.7141 46 37.25 46H9.25C8.78587 46 8.34075 45.8156 8.01256 45.4874C7.68437 45.1592 7.5 44.7141 7.5 44.25V28.5H39V44.25Z" fill="white"/>
</svg>
