<svg width="258" height="255" viewBox="0 0 258 255" fill="none" xmlns="http://www.w3.org/2000/svg">
<path d="M211.111 52.53C198.273 23.5977 167.457 12.7041 143.144 32.13C133.649 39.7086 127.725 51.7701 116.1 56.61C105.192 61.149 91.3733 59.8128 79.5775 62.271C54.4586 67.473 20.64 87.21 23.22 117.621C24.35 130.943 33.4419 145.738 37.9363 158.202C43.0963 172.543 46.1923 190.485 59.8508 199.058C83.2669 213.777 111.513 201.746 132.607 189.878C143.959 183.498 150.208 179.576 162.432 181.764C173.747 183.804 183.938 190.944 194.996 182.473C203.299 176.113 203.985 163.225 210.956 155.657C218.81 147.13 226.772 146.513 230.853 133.696C235.802 118.147 228.511 108.431 223.583 94.5387C218.655 80.6463 217.159 66.1419 211.111 52.53Z" fill="white"/>
<g opacity="0.7">
<path d="M211.111 52.53C198.273 23.5977 167.457 12.7041 143.144 32.13C133.649 39.7086 127.725 51.7701 116.1 56.61C105.192 61.149 91.3733 59.8128 79.5775 62.271C54.4586 67.473 20.64 87.21 23.22 117.621C24.35 130.943 33.4419 145.738 37.9363 158.202C43.0963 172.543 46.1923 190.485 59.8508 199.058C83.2669 213.777 111.513 201.746 132.607 189.878C143.959 183.498 150.208 179.576 162.432 181.764C173.747 183.804 183.938 190.944 194.996 182.473C203.299 176.113 203.985 163.225 210.956 155.657C218.81 147.13 226.772 146.513 230.853 133.696C235.802 118.147 228.511 108.431 223.583 94.5387C218.655 80.6463 217.159 66.1419 211.111 52.53Z" fill="white"/>
</g>
<path d="M113.422 223.217C157.474 223.217 193.185 221.018 193.185 218.305C193.185 215.593 157.474 213.394 113.422 213.394C69.3699 213.394 33.6587 215.593 33.6587 218.305C33.6587 221.018 69.3699 223.217 113.422 223.217Z" fill="white"/>
<path opacity="0.8" d="M113.422 223.217C157.474 223.217 193.185 221.018 193.185 218.305C193.185 215.593 157.474 213.394 113.422 213.394C69.3699 213.394 33.6587 215.593 33.6587 218.305C33.6587 221.018 69.3699 223.217 113.422 223.217Z" fill="white"/>
<path d="M173.361 31.5486H93.1586C87.6215 31.5486 83.1328 35.9851 83.1328 41.4579V208.809C83.1328 214.282 87.6215 218.719 93.1586 218.719H173.361C178.898 218.719 183.386 214.282 183.386 208.809V41.4579C183.386 35.9851 178.898 31.5486 173.361 31.5486Z" fill="#263238"/>
<path d="M178.928 52.1016H87.5858V198.166H178.928V52.1016Z" fill="white" stroke="#263238" stroke-width="1.33739" stroke-miterlimit="10"/>
<path d="M147.259 111.247C154.991 103.605 154.991 91.2149 147.259 83.5728C139.527 75.9308 126.991 75.9308 119.26 83.5728C111.528 91.2149 111.528 103.605 119.26 111.247C126.991 118.889 139.527 118.889 147.259 111.247Z" fill="white"/>
<path d="M159.253 188.98H107.271C107.154 188.981 107.038 188.959 106.93 188.915C106.822 188.871 106.723 188.807 106.64 188.725C106.557 188.644 106.492 188.547 106.447 188.44C106.402 188.333 106.379 188.219 106.379 188.103C106.378 187.987 106.4 187.872 106.445 187.765C106.49 187.658 106.555 187.56 106.638 187.478C106.722 187.396 106.82 187.331 106.929 187.287C107.037 187.243 107.154 187.22 107.271 187.221H159.253C159.37 187.221 159.486 187.244 159.594 187.288C159.702 187.333 159.8 187.398 159.882 187.48C159.965 187.562 160.03 187.659 160.075 187.766C160.119 187.873 160.141 187.988 160.141 188.103C160.141 188.336 160.047 188.559 159.881 188.724C159.714 188.888 159.488 188.98 159.253 188.98Z" fill="white"/>
<path d="M160.946 127.979H105.574C104.431 127.979 103.504 128.895 103.504 130.024V136.476C103.504 137.605 104.431 138.521 105.574 138.521H160.946C162.088 138.521 163.015 137.605 163.015 136.476V130.024C163.015 128.895 162.088 127.979 160.946 127.979Z" fill="white"/>
<path d="M160.946 147.696H105.574C104.431 147.696 103.504 148.612 103.504 149.741V156.193C103.504 157.322 104.431 158.238 105.574 158.238H160.946C162.088 158.238 163.015 157.322 163.015 156.193V149.741C163.015 148.612 162.088 147.696 160.946 147.696Z" fill="white"/>
<path d="M143.118 107.171L137.292 103.856V101.118C138.136 100.109 138.747 98.9308 139.083 97.665C139.283 97.7354 139.494 97.7716 139.707 97.7721C140.429 97.7721 140.889 95.5587 140.966 93.9777C141.807 92.2182 140.662 91.188 140.662 91.188C140.662 91.188 141.136 90.7188 141.451 88.8369C141.766 86.955 140.342 87.7404 139.232 86.0166C138.123 84.2928 137.328 82.416 133.685 82.416C132.681 82.3834 131.691 82.65 130.842 83.1811C129.994 83.7123 129.327 84.4835 128.928 85.3944C128.021 85.3976 127.117 85.502 126.234 85.7055C125.12 86.0166 124.805 89.6223 125.754 91.035C126.179 91.807 126.406 92.6704 126.415 93.5493C126.162 93.2433 125.899 93.1617 125.754 93.8553C125.44 95.421 126.709 97.614 126.709 97.614L127.364 97.4304C127.694 98.7831 128.331 100.044 129.227 101.118V103.856L123.401 107.171C122.721 107.56 122.156 108.118 121.763 108.79C121.37 109.462 121.163 110.225 121.162 111.001V112.899C124.627 115.544 128.881 116.979 133.26 116.979C137.638 116.979 141.892 115.544 145.357 112.899V111.001C145.358 110.225 145.151 109.462 144.758 108.789C144.364 108.117 143.799 107.559 143.118 107.171Z" fill="#263238"/>
<path d="M111.043 155.616C110.91 155.614 110.782 155.561 110.687 155.468C110.636 155.424 110.596 155.368 110.568 155.307C110.541 155.245 110.527 155.179 110.527 155.111C110.529 155.019 110.556 154.93 110.605 154.851L111.533 153.382L109.722 153.439C109.654 153.443 109.586 153.433 109.522 153.409C109.458 153.385 109.399 153.348 109.351 153.301C109.267 153.207 109.22 153.087 109.22 152.962C109.22 152.837 109.267 152.716 109.351 152.623C109.398 152.573 109.456 152.535 109.52 152.51C109.585 152.486 109.654 152.475 109.722 152.48L111.508 152.546L110.589 151.082C110.539 151.003 110.512 150.911 110.512 150.817C110.511 150.75 110.525 150.683 110.553 150.622C110.58 150.56 110.621 150.505 110.672 150.46C110.767 150.367 110.894 150.314 111.028 150.312C111.116 150.313 111.202 150.338 111.276 150.385C111.35 150.432 111.409 150.499 111.446 150.577L112.328 152.153L113.2 150.588C113.241 150.504 113.305 150.433 113.384 150.383C113.463 150.333 113.555 150.305 113.649 150.302C113.714 150.302 113.779 150.316 113.838 150.343C113.898 150.369 113.951 150.407 113.995 150.455C114.089 150.552 114.141 150.682 114.139 150.817C114.139 150.905 114.116 150.991 114.072 151.067L113.138 152.546L114.949 152.48C115.018 152.475 115.087 152.486 115.151 152.51C115.215 152.535 115.273 152.573 115.321 152.623C115.409 152.713 115.457 152.834 115.455 152.959C115.455 153.086 115.407 153.207 115.321 153.301C115.272 153.348 115.214 153.385 115.15 153.409C115.086 153.433 115.018 153.443 114.949 153.439L113.128 153.382L114.036 154.836C114.087 154.917 114.114 155.011 114.113 155.106C114.113 155.242 114.059 155.371 113.962 155.467C113.865 155.563 113.734 155.616 113.597 155.616C113.509 155.615 113.423 155.588 113.349 155.54C113.276 155.491 113.219 155.422 113.185 155.341L112.323 153.811L111.466 155.341C111.428 155.421 111.369 155.489 111.294 155.538C111.219 155.586 111.133 155.613 111.043 155.616Z" fill="#263238"/>
<path d="M119.413 155.616C119.279 155.614 119.151 155.561 119.057 155.468C119.006 155.424 118.965 155.368 118.938 155.307C118.91 155.245 118.896 155.179 118.897 155.111C118.898 155.019 118.925 154.93 118.974 154.851L119.903 153.383L118.097 153.439C118.028 153.442 117.959 153.431 117.894 153.407C117.83 153.384 117.771 153.348 117.72 153.301C117.652 153.231 117.606 153.142 117.589 153.047C117.572 152.951 117.585 152.852 117.626 152.764C117.666 152.675 117.733 152.601 117.817 152.55C117.901 152.499 117.999 152.475 118.097 152.48L119.877 152.546L118.959 151.082C118.909 151.003 118.882 150.911 118.881 150.817C118.881 150.75 118.895 150.683 118.922 150.622C118.95 150.56 118.99 150.505 119.041 150.46C119.136 150.367 119.264 150.314 119.397 150.312C119.485 150.313 119.571 150.338 119.645 150.385C119.719 150.432 119.778 150.499 119.815 150.578L120.698 152.153L121.57 150.588C121.611 150.504 121.675 150.433 121.754 150.383C121.833 150.333 121.924 150.305 122.019 150.302C122.084 150.302 122.148 150.315 122.208 150.342C122.268 150.368 122.321 150.407 122.364 150.455C122.412 150.503 122.45 150.559 122.476 150.621C122.501 150.684 122.514 150.75 122.514 150.817C122.512 150.905 122.487 150.991 122.442 151.067L121.508 152.546L123.324 152.49C123.392 152.485 123.46 152.496 123.523 152.521C123.587 152.545 123.644 152.584 123.69 152.633C123.778 152.723 123.827 152.844 123.825 152.969C123.824 153.096 123.776 153.218 123.69 153.311C123.643 153.359 123.585 153.395 123.522 153.419C123.459 153.443 123.391 153.453 123.324 153.449L121.497 153.393L122.406 154.846C122.456 154.927 122.483 155.021 122.483 155.116C122.483 155.252 122.429 155.381 122.332 155.477C122.235 155.573 122.104 155.626 121.967 155.626C121.878 155.625 121.792 155.599 121.719 155.55C121.646 155.501 121.588 155.432 121.554 155.351L120.692 153.821L119.836 155.351C119.796 155.429 119.736 155.495 119.662 155.542C119.587 155.589 119.501 155.614 119.413 155.616Z" fill="#263238"/>
<path d="M127.787 155.616C127.652 155.616 127.522 155.563 127.426 155.468C127.375 155.424 127.335 155.368 127.307 155.307C127.28 155.245 127.266 155.179 127.266 155.111C127.268 155.019 127.295 154.93 127.344 154.851L128.272 153.383L126.466 153.439C126.369 153.442 126.273 153.418 126.19 153.367C126.107 153.317 126.041 153.243 126.001 153.156C125.96 153.068 125.947 152.971 125.963 152.876C125.979 152.781 126.023 152.693 126.09 152.623C126.138 152.573 126.197 152.535 126.262 152.511C126.327 152.486 126.397 152.475 126.466 152.48L128.247 152.546L127.328 151.082C127.278 151.003 127.251 150.911 127.251 150.817C127.252 150.75 127.267 150.684 127.295 150.623C127.322 150.562 127.362 150.506 127.411 150.46C127.507 150.366 127.637 150.313 127.772 150.312C127.859 150.314 127.944 150.34 128.017 150.386C128.09 150.433 128.148 150.499 128.185 150.578L129.067 152.153L129.939 150.588C129.98 150.504 130.044 150.433 130.123 150.383C130.202 150.333 130.294 150.305 130.388 150.302C130.453 150.302 130.518 150.315 130.578 150.342C130.637 150.368 130.69 150.407 130.734 150.455C130.782 150.503 130.819 150.559 130.845 150.621C130.871 150.684 130.884 150.75 130.883 150.817C130.882 150.905 130.857 150.991 130.811 151.067L129.877 152.546L131.693 152.48C131.76 152.473 131.828 152.481 131.891 152.502C131.955 152.523 132.013 152.558 132.062 152.603C132.111 152.649 132.149 152.704 132.175 152.765C132.2 152.827 132.212 152.893 132.209 152.959C132.211 153.085 132.165 153.207 132.08 153.301C132.032 153.348 131.974 153.385 131.91 153.409C131.846 153.433 131.777 153.443 131.709 153.439L129.887 153.383L130.79 154.836C130.841 154.917 130.868 155.011 130.868 155.106C130.866 155.173 130.851 155.239 130.824 155.301C130.796 155.362 130.757 155.417 130.708 155.463C130.663 155.511 130.609 155.549 130.548 155.576C130.488 155.602 130.423 155.616 130.357 155.616C130.269 155.615 130.184 155.588 130.111 155.539C130.039 155.49 129.983 155.421 129.949 155.341L129.083 153.811L128.226 155.341C128.187 155.424 128.125 155.494 128.048 155.542C127.97 155.591 127.88 155.617 127.787 155.616Z" fill="#263238"/>
<path d="M136.157 155.616C136.022 155.616 135.892 155.563 135.796 155.468C135.698 155.374 135.643 155.246 135.641 155.111C135.639 155.02 135.664 154.929 135.713 154.851L136.642 153.383L134.836 153.439C134.767 153.442 134.698 153.431 134.634 153.407C134.569 153.384 134.51 153.348 134.459 153.301C134.375 153.208 134.329 153.087 134.329 152.962C134.329 152.837 134.375 152.716 134.459 152.623C134.509 152.575 134.568 152.538 134.633 152.513C134.698 152.489 134.767 152.477 134.836 152.48L136.621 152.546L135.708 151.082C135.658 151.003 135.631 150.911 135.631 150.817C135.632 150.75 135.647 150.684 135.675 150.623C135.702 150.562 135.741 150.506 135.791 150.46C135.887 150.366 136.016 150.313 136.152 150.312C136.24 150.313 136.326 150.338 136.4 150.385C136.474 150.432 136.533 150.499 136.57 150.578L137.447 152.153L138.319 150.588C138.36 150.504 138.424 150.433 138.503 150.383C138.582 150.333 138.674 150.305 138.768 150.302C138.833 150.302 138.898 150.315 138.957 150.342C139.017 150.368 139.07 150.407 139.114 150.455C139.161 150.503 139.199 150.559 139.225 150.621C139.251 150.684 139.264 150.75 139.263 150.817C139.261 150.905 139.237 150.991 139.191 151.067L138.257 152.546L140.073 152.48C140.14 152.473 140.208 152.481 140.271 152.502C140.335 152.523 140.393 152.558 140.442 152.603C140.491 152.649 140.529 152.704 140.555 152.765C140.58 152.827 140.592 152.893 140.589 152.959C140.59 153.085 140.544 153.207 140.46 153.301C140.412 153.348 140.354 153.385 140.289 153.409C140.225 153.433 140.157 153.443 140.089 153.439L138.267 153.383L139.17 154.836C139.221 154.917 139.248 155.011 139.248 155.106C139.248 155.174 139.234 155.24 139.207 155.302C139.179 155.363 139.139 155.418 139.088 155.463C139.043 155.511 138.989 155.549 138.928 155.576C138.868 155.602 138.803 155.616 138.737 155.616C138.649 155.615 138.564 155.588 138.491 155.539C138.419 155.49 138.363 155.421 138.329 155.341L137.462 153.811L136.606 155.341C136.566 155.425 136.503 155.496 136.423 155.545C136.343 155.594 136.251 155.619 136.157 155.616Z" fill="#263238"/>
<path d="M144.526 155.616C144.391 155.616 144.261 155.563 144.165 155.468C144.085 155.388 144.034 155.284 144.02 155.173C144.006 155.061 144.03 154.948 144.088 154.851L145.011 153.383L143.205 153.439C143.137 153.442 143.068 153.431 143.003 153.407C142.938 153.384 142.879 153.348 142.829 153.301C142.745 153.208 142.698 153.087 142.698 152.962C142.698 152.837 142.745 152.716 142.829 152.623C142.879 152.575 142.938 152.538 143.002 152.513C143.067 152.489 143.136 152.477 143.205 152.48L144.991 152.546L144.072 151.082C144.022 151.003 143.996 150.911 143.995 150.817C143.997 150.683 144.053 150.554 144.15 150.46C144.246 150.366 144.376 150.313 144.511 150.312C144.599 150.313 144.685 150.338 144.759 150.385C144.833 150.432 144.892 150.499 144.929 150.578L145.806 152.153L146.678 150.588C146.72 150.504 146.783 150.433 146.862 150.383C146.941 150.333 147.033 150.305 147.127 150.302C147.193 150.302 147.259 150.315 147.319 150.342C147.38 150.368 147.434 150.407 147.478 150.455C147.573 150.552 147.625 150.682 147.622 150.817C147.621 150.905 147.596 150.991 147.55 151.067L146.616 152.546L148.433 152.48C148.499 152.473 148.567 152.481 148.63 152.502C148.694 152.523 148.752 152.558 148.801 152.603C148.85 152.649 148.888 152.704 148.914 152.766C148.939 152.827 148.951 152.893 148.949 152.959C148.95 153.085 148.904 153.207 148.82 153.301C148.771 153.348 148.713 153.385 148.649 153.409C148.585 153.433 148.516 153.443 148.448 153.439L146.627 153.383L147.53 154.836C147.58 154.917 147.607 155.011 147.607 155.106C147.607 155.174 147.593 155.24 147.566 155.302C147.538 155.363 147.498 155.418 147.447 155.463C147.402 155.511 147.348 155.549 147.288 155.576C147.227 155.602 147.162 155.616 147.096 155.616C147.008 155.615 146.923 155.588 146.851 155.539C146.778 155.49 146.722 155.421 146.688 155.341L145.822 153.811L144.965 155.341C144.926 155.424 144.865 155.494 144.787 155.542C144.709 155.591 144.619 155.617 144.526 155.616Z" fill="#263238"/>
<path d="M152.896 155.616C152.762 155.614 152.635 155.561 152.54 155.468C152.489 155.424 152.449 155.368 152.421 155.307C152.393 155.245 152.379 155.179 152.38 155.111C152.382 155.019 152.408 154.93 152.457 154.851L153.381 153.383L151.575 153.439C151.509 153.444 151.442 153.435 151.379 153.413C151.316 153.391 151.259 153.356 151.21 153.311C151.162 153.266 151.123 153.212 151.097 153.151C151.071 153.09 151.058 153.025 151.059 152.959C151.059 152.897 151.071 152.835 151.095 152.777C151.119 152.719 151.154 152.667 151.198 152.623C151.246 152.573 151.304 152.535 151.368 152.51C151.432 152.486 151.501 152.475 151.57 152.48L153.355 152.546L152.437 151.082C152.387 151.003 152.36 150.911 152.359 150.817C152.361 150.683 152.417 150.554 152.514 150.46C152.61 150.366 152.74 150.313 152.875 150.312C152.963 150.313 153.049 150.338 153.123 150.385C153.197 150.432 153.256 150.499 153.293 150.578L154.17 152.153L155.048 150.588C155.089 150.505 155.152 150.435 155.23 150.384C155.308 150.334 155.398 150.306 155.491 150.302C155.558 150.302 155.623 150.315 155.683 150.342C155.744 150.368 155.798 150.407 155.842 150.455C155.937 150.552 155.989 150.682 155.987 150.817C155.987 150.905 155.963 150.991 155.92 151.067L154.986 152.546L156.797 152.48C156.866 152.475 156.935 152.486 156.999 152.51C157.063 152.535 157.121 152.573 157.168 152.623C157.256 152.713 157.305 152.834 157.303 152.959C157.302 153.086 157.254 153.207 157.168 153.301C157.12 153.348 157.062 153.385 156.998 153.409C156.934 153.433 156.865 153.443 156.797 153.439L154.975 153.383L155.878 154.836C155.929 154.917 155.956 155.011 155.956 155.106C155.954 155.241 155.898 155.369 155.801 155.463C155.707 155.558 155.579 155.613 155.445 155.616C155.357 155.615 155.272 155.588 155.199 155.539C155.127 155.49 155.071 155.421 155.037 155.341L154.17 153.811L153.314 155.341C153.277 155.42 153.218 155.488 153.144 155.537C153.071 155.586 152.985 155.613 152.896 155.616Z" fill="#263238"/>
<g style="mix-blend-mode:multiply">
<path d="M178.928 52.2954H87.5858V57.9513H178.928V52.2954Z" fill="white"/>
</g>
<path d="M143.19 41.8761H123.324C122.965 41.8761 122.622 41.7353 122.368 41.4847C122.115 41.2341 121.972 40.8943 121.972 40.5399C121.972 40.1855 122.115 39.8456 122.368 39.5951C122.622 39.3445 122.965 39.2037 123.324 39.2037H143.19C143.549 39.2037 143.892 39.3445 144.146 39.5951C144.399 39.8456 144.542 40.1855 144.542 40.5399C144.542 40.8943 144.399 41.2341 144.146 41.4847C143.892 41.7353 143.549 41.8761 143.19 41.8761Z" fill="white" stroke="#263238" stroke-width="1.33739" stroke-linecap="round" stroke-linejoin="round"/>
<path d="M138.675 206.417C138.676 205.358 138.359 204.322 137.764 203.44C137.169 202.559 136.323 201.872 135.333 201.466C134.343 201.06 133.253 200.953 132.201 201.16C131.15 201.366 130.184 201.877 129.426 202.626C128.668 203.375 128.152 204.33 127.943 205.369C127.734 206.408 127.842 207.485 128.252 208.464C128.663 209.443 129.358 210.279 130.25 210.867C131.142 211.455 132.19 211.768 133.262 211.767C134.697 211.766 136.073 211.202 137.088 210.199C138.103 209.196 138.674 207.836 138.675 206.417Z" fill="white"/>
<path d="M136.007 203.704H130.517V209.131H136.007V203.704Z" fill="white" stroke="#263238" stroke-width="1.33739" stroke-linecap="round" stroke-linejoin="round"/>
<path d="M198.66 144.84C198.66 144.84 191.467 126.776 197.871 124.629C204.537 122.39 204.243 134.319 203.985 140.133C203.443 152.556 202.055 154.867 201.018 151.832L198.66 144.84ZM196.498 158.931C198.474 161.481 199.032 158.84 195.466 146.911C193.794 141.301 190.161 129.953 184.589 134.212C179.238 138.292 191.973 153.082 191.973 153.082L196.498 158.931ZM192.68 169.284C194.563 170.937 194.599 168.851 190.125 160.237C188.025 156.203 183.582 148.038 179.945 152.077C176.451 155.973 188.355 165.444 188.355 165.444L192.68 169.284ZM188.552 181.596C190.435 183.253 190.471 181.162 185.997 172.553C183.897 168.519 179.454 160.349 175.817 164.393C172.344 168.3 184.212 177.771 184.212 177.771L188.552 181.596ZM200.471 156.534C197.458 157.697 199.852 158.962 212.437 158.926C218.34 158.926 230.394 158.661 227.824 152.179C225.363 145.952 207.437 153.882 207.437 153.882L200.471 156.534ZM197.04 164.817C193.851 165.362 195.946 167.076 208.289 169.514C214.073 170.661 225.936 172.778 224.723 165.944C223.562 159.355 204.398 163.608 204.398 163.608L197.04 164.817ZM193.201 174.93C190.487 175.318 192.22 176.812 202.597 179.158C207.463 180.26 217.448 182.325 216.581 176.496C215.755 170.886 199.449 174.058 199.449 174.058L193.201 174.93ZM190.285 184.299C187.628 184.967 189.511 186.272 200.089 187.517C205.043 188.098 215.193 189.108 213.712 183.401C212.282 177.924 196.41 182.774 196.41 182.774L190.285 184.299ZM205.838 146.37C204.29 149.797 207.504 149.277 218.433 139.852C223.552 135.431 233.82 126.179 225.688 121.574C217.881 117.147 209.486 138.506 209.486 138.506L205.838 146.37ZM190.688 196.503C189.052 197.447 190.657 197.814 198.159 196.335C201.679 195.646 208.836 194.116 206.415 191.097C204.073 188.19 194.475 194.31 194.475 194.31L190.688 196.503Z" fill="white"/>
<path opacity="0.3" d="M198.66 144.84C198.66 144.84 191.467 126.776 197.871 124.629C204.537 122.39 204.243 134.319 203.985 140.133C203.443 152.556 202.055 154.867 201.018 151.832L198.66 144.84ZM196.498 158.931C198.474 161.481 199.032 158.84 195.466 146.911C193.794 141.301 190.161 129.953 184.589 134.212C179.238 138.292 191.973 153.082 191.973 153.082L196.498 158.931ZM192.68 169.284C194.563 170.937 194.599 168.851 190.125 160.237C188.025 156.203 183.582 148.038 179.945 152.077C176.451 155.973 188.355 165.444 188.355 165.444L192.68 169.284ZM188.552 181.596C190.435 183.253 190.471 181.162 185.997 172.553C183.897 168.519 179.454 160.349 175.817 164.393C172.344 168.3 184.212 177.771 184.212 177.771L188.552 181.596ZM200.471 156.534C197.458 157.697 199.852 158.962 212.437 158.926C218.34 158.926 230.394 158.661 227.824 152.179C225.363 145.952 207.437 153.882 207.437 153.882L200.471 156.534ZM197.04 164.817C193.851 165.362 195.946 167.076 208.289 169.514C214.073 170.661 225.936 172.778 224.723 165.944C223.562 159.355 204.398 163.608 204.398 163.608L197.04 164.817ZM193.201 174.93C190.487 175.318 192.22 176.812 202.597 179.158C207.463 180.26 217.448 182.325 216.581 176.496C215.755 170.886 199.449 174.058 199.449 174.058L193.201 174.93ZM190.285 184.299C187.628 184.967 189.511 186.272 200.089 187.517C205.043 188.098 215.193 189.108 213.712 183.401C212.282 177.924 196.41 182.774 196.41 182.774L190.285 184.299ZM205.838 146.37C204.29 149.797 207.504 149.277 218.433 139.852C223.552 135.431 233.82 126.179 225.688 121.574C217.881 117.147 209.486 138.506 209.486 138.506L205.838 146.37ZM190.688 196.503C189.052 197.447 190.657 197.814 198.159 196.335C201.679 195.646 208.836 194.116 206.415 191.097C204.073 188.19 194.475 194.31 194.475 194.31L190.688 196.503Z" fill="white"/>
<path d="M201.833 153.25L200.58 132.631L201.833 153.25ZM197.865 160.053L189.94 142.321L197.865 160.053ZM218.32 154.897L199.326 157.59L218.32 154.897ZM193.758 169.611L183.474 156.57L193.758 169.611ZM195.564 165.612L209.733 166.316L195.564 165.612ZM192.21 175.613L203.046 176.674L192.21 175.613ZM189.594 181.968L184.212 173.966L189.594 181.968ZM188.975 184.793L201.715 184.911L188.975 184.793ZM186.395 208.417C186.48 208.41 186.559 208.371 186.615 208.307C186.671 208.243 186.7 208.159 186.694 208.075C185.884 196.049 190.59 176.353 198.139 160.186C202.963 149.853 221.875 129.545 222.076 129.341C222.137 129.281 222.171 129.199 222.171 129.114C222.171 129.029 222.137 128.947 222.076 128.887C222.046 128.858 222.011 128.834 221.972 128.818C221.933 128.802 221.891 128.794 221.849 128.794C221.807 128.794 221.765 128.802 221.726 128.818C221.687 128.834 221.652 128.858 221.622 128.887C221.431 129.091 202.442 149.476 197.576 159.9C189.888 176.46 185.244 195.799 186.07 208.116C186.076 208.197 186.113 208.273 186.173 208.328C186.233 208.384 186.312 208.416 186.395 208.417ZM201.828 153.566C201.914 153.561 201.993 153.523 202.05 153.46C202.107 153.397 202.137 153.314 202.133 153.23L200.899 132.6C200.897 132.558 200.887 132.517 200.869 132.479C200.851 132.441 200.825 132.407 200.793 132.379C200.761 132.351 200.724 132.329 200.684 132.316C200.644 132.302 200.601 132.296 200.559 132.299C200.474 132.304 200.394 132.343 200.337 132.406C200.28 132.469 200.25 132.551 200.254 132.636L201.508 153.255C201.512 153.336 201.548 153.413 201.607 153.469C201.667 153.525 201.746 153.556 201.828 153.556V153.566ZM197.979 160.344C198.056 160.309 198.117 160.246 198.148 160.168C198.178 160.09 198.177 160.003 198.144 159.926L190.213 142.193C190.179 142.116 190.115 142.055 190.036 142.025C189.956 141.994 189.868 141.996 189.79 142.03C189.712 142.064 189.651 142.127 189.62 142.205C189.589 142.284 189.591 142.371 189.625 142.448L197.551 160.181C197.576 160.238 197.617 160.286 197.669 160.321C197.721 160.355 197.782 160.374 197.845 160.375C197.898 160.377 197.951 160.367 198 160.344H197.979ZM199.351 157.896L218.335 155.213C218.381 155.212 218.426 155.202 218.468 155.183C218.509 155.163 218.546 155.135 218.576 155.101C218.605 155.066 218.627 155.026 218.64 154.983C218.653 154.939 218.657 154.893 218.65 154.849C218.644 154.804 218.628 154.761 218.604 154.722C218.58 154.684 218.548 154.651 218.51 154.625C218.472 154.6 218.428 154.583 218.383 154.575C218.338 154.568 218.292 154.57 218.247 154.581L199.264 157.264C199.179 157.269 199.1 157.308 199.044 157.371C198.987 157.434 198.959 157.516 198.964 157.6C198.97 157.684 199.009 157.762 199.073 157.818C199.137 157.873 199.22 157.901 199.305 157.896H199.351ZM193.939 169.866C194.006 169.813 194.05 169.737 194.06 169.653C194.071 169.569 194.048 169.484 193.995 169.417L183.706 156.351C183.654 156.283 183.576 156.239 183.49 156.228C183.405 156.217 183.318 156.24 183.25 156.292C183.181 156.344 183.137 156.421 183.125 156.506C183.114 156.59 183.138 156.676 183.19 156.743L193.5 169.83C193.53 169.868 193.568 169.899 193.612 169.92C193.656 169.941 193.704 169.952 193.753 169.952C193.83 169.949 193.903 169.918 193.959 169.866H193.939ZM210.017 166.331C210.02 166.247 209.989 166.165 209.931 166.103C209.873 166.041 209.793 166.004 209.708 166L195.564 165.291C195.485 165.296 195.41 165.33 195.354 165.387C195.298 165.443 195.265 165.517 195.262 165.596C195.258 165.675 195.283 165.752 195.333 165.813C195.383 165.875 195.454 165.916 195.533 165.929L209.702 166.637C209.788 166.64 209.871 166.61 209.934 166.552C209.996 166.495 210.034 166.416 210.038 166.331H210.017ZM203.345 176.705C203.35 176.663 203.347 176.62 203.335 176.58C203.323 176.539 203.303 176.501 203.276 176.469C203.249 176.436 203.216 176.409 203.178 176.389C203.14 176.369 203.099 176.357 203.056 176.353L192.22 175.297C192.178 175.293 192.136 175.297 192.095 175.309C192.055 175.321 192.017 175.341 191.985 175.368C191.952 175.394 191.925 175.427 191.905 175.464C191.886 175.501 191.873 175.541 191.869 175.583C191.862 175.666 191.888 175.75 191.942 175.814C191.996 175.879 192.074 175.921 192.158 175.93L202.994 176.99H203.025C203.109 176.996 203.191 176.969 203.254 176.916C203.318 176.863 203.358 176.787 203.366 176.705H203.345ZM189.749 182.233C189.82 182.186 189.87 182.113 189.888 182.03C189.905 181.947 189.889 181.861 189.842 181.79L184.486 173.788C184.436 173.719 184.362 173.671 184.279 173.655C184.195 173.639 184.108 173.655 184.037 173.701C183.965 173.748 183.915 173.821 183.898 173.904C183.88 173.987 183.897 174.074 183.944 174.145L189.3 182.146C189.33 182.19 189.371 182.226 189.419 182.251C189.466 182.276 189.519 182.289 189.573 182.289C189.643 182.293 189.712 182.273 189.769 182.233H189.749ZM202.04 184.911C202.039 184.827 202.005 184.747 201.945 184.687C201.885 184.627 201.805 184.592 201.72 184.589L188.98 184.472C188.895 184.472 188.814 184.505 188.754 184.565C188.694 184.624 188.66 184.704 188.66 184.788C188.659 184.83 188.666 184.872 188.681 184.912C188.697 184.951 188.72 184.987 188.75 185.017C188.78 185.047 188.816 185.071 188.855 185.086C188.895 185.102 188.937 185.11 188.98 185.11L201.72 185.227C201.763 185.229 201.807 185.222 201.848 185.207C201.889 185.193 201.926 185.17 201.958 185.14C201.99 185.111 202.015 185.075 202.033 185.036C202.05 184.996 202.06 184.954 202.06 184.911H202.04ZM184.945 203.74C184.971 203.684 187.143 197.768 193.675 196.355C193.76 196.337 193.833 196.286 193.879 196.215C193.926 196.143 193.942 196.056 193.923 195.973C193.902 195.891 193.85 195.821 193.778 195.776C193.706 195.731 193.619 195.716 193.536 195.733C186.648 197.222 184.362 203.47 184.336 203.531C184.309 203.611 184.315 203.699 184.353 203.775C184.391 203.851 184.457 203.91 184.537 203.939H184.64C184.709 203.945 184.778 203.928 184.836 203.893C184.895 203.857 184.94 203.803 184.965 203.74H184.945ZM186.395 208.417C186.48 208.41 186.559 208.371 186.615 208.307C186.671 208.243 186.7 208.159 186.694 208.075C185.884 196.049 190.59 176.353 198.139 160.186C202.963 149.853 221.875 129.545 222.076 129.341C222.137 129.281 222.171 129.199 222.171 129.114C222.171 129.029 222.137 128.947 222.076 128.887C222.046 128.858 222.011 128.834 221.972 128.818C221.933 128.802 221.891 128.794 221.849 128.794C221.807 128.794 221.765 128.802 221.726 128.818C221.687 128.834 221.652 128.858 221.622 128.887C221.431 129.091 202.442 149.476 197.576 159.9C189.888 176.46 185.244 195.799 186.07 208.116C186.076 208.197 186.113 208.273 186.173 208.328C186.233 208.384 186.312 208.416 186.395 208.417ZM201.828 153.566C201.914 153.561 201.993 153.523 202.05 153.46C202.107 153.397 202.137 153.314 202.133 153.23L200.899 132.6C200.897 132.558 200.887 132.517 200.869 132.479C200.851 132.441 200.825 132.407 200.793 132.379C200.761 132.351 200.724 132.329 200.684 132.316C200.644 132.302 200.601 132.296 200.559 132.299C200.474 132.304 200.394 132.343 200.337 132.406C200.28 132.469 200.25 132.551 200.254 132.636L201.508 153.255C201.512 153.336 201.548 153.413 201.607 153.469C201.667 153.525 201.746 153.556 201.828 153.556V153.566ZM197.979 160.344C198.056 160.309 198.117 160.246 198.148 160.168C198.178 160.09 198.177 160.003 198.144 159.926L190.213 142.193C190.179 142.116 190.115 142.055 190.036 142.025C189.956 141.994 189.868 141.996 189.79 142.03C189.712 142.064 189.651 142.127 189.62 142.205C189.589 142.284 189.591 142.371 189.625 142.448L197.551 160.181C197.576 160.238 197.617 160.286 197.669 160.321C197.721 160.355 197.782 160.374 197.845 160.375C197.898 160.377 197.951 160.367 198 160.344H197.979ZM199.351 157.896L218.335 155.213C218.381 155.212 218.426 155.202 218.468 155.183C218.509 155.163 218.546 155.135 218.576 155.101C218.605 155.066 218.627 155.026 218.64 154.983C218.653 154.939 218.657 154.893 218.65 154.849C218.644 154.804 218.628 154.761 218.604 154.722C218.58 154.684 218.548 154.651 218.51 154.625C218.472 154.6 218.428 154.583 218.383 154.575C218.338 154.568 218.292 154.57 218.247 154.581L199.264 157.264C199.179 157.269 199.1 157.308 199.044 157.371C198.987 157.434 198.959 157.516 198.964 157.6C198.97 157.684 199.009 157.762 199.073 157.818C199.137 157.873 199.22 157.901 199.305 157.896H199.351ZM193.939 169.866C194.006 169.813 194.05 169.737 194.06 169.653C194.071 169.569 194.048 169.484 193.995 169.417L183.706 156.351C183.68 156.317 183.648 156.289 183.611 156.268C183.574 156.247 183.533 156.233 183.49 156.228C183.448 156.222 183.405 156.225 183.364 156.236C183.322 156.247 183.284 156.266 183.25 156.292C183.216 156.318 183.187 156.35 183.166 156.387C183.145 156.423 183.131 156.464 183.125 156.506C183.12 156.547 183.123 156.59 183.134 156.631C183.145 156.672 183.164 156.71 183.19 156.743L193.5 169.83C193.53 169.868 193.568 169.899 193.612 169.92C193.656 169.941 193.704 169.952 193.753 169.952C193.83 169.949 193.903 169.918 193.959 169.866H193.939ZM210.017 166.331C210.02 166.247 209.989 166.165 209.931 166.103C209.873 166.041 209.793 166.004 209.708 166L195.564 165.291C195.485 165.296 195.41 165.33 195.354 165.387C195.298 165.443 195.265 165.517 195.262 165.596C195.258 165.675 195.283 165.752 195.333 165.813C195.383 165.875 195.454 165.916 195.533 165.929L209.702 166.637C209.788 166.64 209.871 166.61 209.934 166.552C209.996 166.495 210.034 166.416 210.038 166.331H210.017ZM203.345 176.705C203.35 176.663 203.347 176.62 203.335 176.58C203.323 176.539 203.303 176.501 203.276 176.469C203.249 176.436 203.216 176.409 203.178 176.389C203.14 176.369 203.099 176.357 203.056 176.353L192.22 175.297C192.178 175.293 192.136 175.297 192.095 175.309C192.055 175.321 192.017 175.341 191.985 175.368C191.952 175.394 191.925 175.427 191.905 175.464C191.886 175.501 191.873 175.541 191.869 175.583C191.862 175.666 191.888 175.75 191.942 175.814C191.996 175.879 192.074 175.921 192.158 175.93L202.994 176.99H203.025C203.109 176.996 203.191 176.969 203.254 176.916C203.318 176.863 203.358 176.787 203.366 176.705H203.345ZM189.749 182.233C189.82 182.186 189.87 182.113 189.888 182.03C189.905 181.947 189.889 181.861 189.842 181.79L184.486 173.788C184.436 173.719 184.362 173.671 184.279 173.655C184.195 173.639 184.108 173.655 184.037 173.701C183.965 173.748 183.915 173.821 183.898 173.904C183.88 173.987 183.897 174.074 183.944 174.145L189.3 182.146C189.33 182.19 189.371 182.226 189.419 182.251C189.466 182.276 189.519 182.289 189.573 182.289C189.643 182.293 189.712 182.273 189.769 182.233H189.749ZM202.04 184.911C202.039 184.827 202.005 184.747 201.945 184.687C201.885 184.627 201.805 184.592 201.72 184.589L188.98 184.472C188.895 184.472 188.814 184.505 188.754 184.565C188.694 184.624 188.66 184.704 188.66 184.788C188.659 184.83 188.666 184.872 188.681 184.912C188.697 184.951 188.72 184.987 188.75 185.017C188.78 185.047 188.816 185.071 188.855 185.086C188.895 185.102 188.937 185.11 188.98 185.11L201.72 185.227C201.763 185.229 201.807 185.222 201.848 185.207C201.889 185.193 201.926 185.17 201.958 185.14C201.99 185.111 202.015 185.075 202.033 185.036C202.05 184.996 202.06 184.954 202.06 184.911H202.04ZM184.945 203.74C184.971 203.684 187.143 197.768 193.675 196.355C193.76 196.337 193.833 196.286 193.879 196.215C193.926 196.143 193.942 196.056 193.923 195.973C193.902 195.891 193.85 195.821 193.778 195.776C193.706 195.731 193.619 195.716 193.536 195.733C186.648 197.222 184.362 203.47 184.336 203.531C184.309 203.611 184.315 203.699 184.353 203.775C184.391 203.851 184.457 203.91 184.537 203.939H184.64C184.709 203.945 184.778 203.928 184.836 203.893C184.895 203.857 184.94 203.803 184.965 203.74H184.945Z" fill="white"/>
<path opacity="0.2" d="M201.833 153.25L200.58 132.631L201.833 153.25ZM197.865 160.053L189.94 142.321L197.865 160.053ZM218.32 154.897L199.326 157.59L218.32 154.897ZM193.758 169.611L183.474 156.57L193.758 169.611ZM195.564 165.612L209.733 166.316L195.564 165.612ZM192.21 175.613L203.046 176.674L192.21 175.613ZM189.594 181.968L184.212 173.966L189.594 181.968ZM188.975 184.793L201.715 184.911L188.975 184.793ZM186.395 208.417C186.48 208.41 186.559 208.371 186.615 208.307C186.671 208.243 186.7 208.159 186.694 208.075C185.884 196.049 190.59 176.353 198.139 160.186C202.963 149.853 221.875 129.545 222.076 129.341C222.137 129.281 222.171 129.199 222.171 129.114C222.171 129.029 222.137 128.947 222.076 128.887C222.046 128.858 222.011 128.834 221.972 128.818C221.933 128.802 221.891 128.794 221.849 128.794C221.807 128.794 221.765 128.802 221.726 128.818C221.687 128.834 221.652 128.858 221.622 128.887C221.431 129.091 202.442 149.476 197.576 159.9C189.888 176.46 185.244 195.799 186.07 208.116C186.076 208.197 186.113 208.273 186.173 208.328C186.233 208.384 186.312 208.416 186.395 208.417ZM201.828 153.566C201.914 153.561 201.993 153.523 202.05 153.46C202.107 153.397 202.137 153.314 202.133 153.23L200.899 132.6C200.897 132.558 200.887 132.517 200.869 132.479C200.851 132.441 200.825 132.407 200.793 132.379C200.761 132.351 200.724 132.329 200.684 132.316C200.644 132.302 200.601 132.296 200.559 132.299C200.474 132.304 200.394 132.343 200.337 132.406C200.28 132.469 200.25 132.551 200.254 132.636L201.508 153.255C201.512 153.336 201.548 153.413 201.607 153.469C201.667 153.525 201.746 153.556 201.828 153.556V153.566ZM197.979 160.344C198.056 160.309 198.117 160.246 198.148 160.168C198.178 160.09 198.177 160.003 198.144 159.926L190.213 142.193C190.179 142.116 190.115 142.055 190.036 142.025C189.956 141.994 189.868 141.996 189.79 142.03C189.712 142.064 189.651 142.127 189.62 142.205C189.589 142.284 189.591 142.371 189.625 142.448L197.551 160.181C197.576 160.238 197.617 160.286 197.669 160.321C197.721 160.355 197.782 160.374 197.845 160.375C197.898 160.377 197.951 160.367 198 160.344H197.979ZM199.351 157.896L218.335 155.213C218.381 155.212 218.426 155.202 218.468 155.183C218.509 155.163 218.546 155.135 218.576 155.101C218.605 155.066 218.627 155.026 218.64 154.983C218.653 154.939 218.657 154.893 218.65 154.849C218.644 154.804 218.628 154.761 218.604 154.722C218.58 154.684 218.548 154.651 218.51 154.625C218.472 154.6 218.428 154.583 218.383 154.575C218.338 154.568 218.292 154.57 218.247 154.581L199.264 157.264C199.179 157.269 199.1 157.308 199.044 157.371C198.987 157.434 198.959 157.516 198.964 157.6C198.97 157.684 199.009 157.762 199.073 157.818C199.137 157.873 199.22 157.901 199.305 157.896H199.351ZM193.939 169.866C194.006 169.813 194.05 169.737 194.06 169.653C194.071 169.569 194.048 169.484 193.995 169.417L183.706 156.351C183.654 156.283 183.576 156.239 183.49 156.228C183.405 156.217 183.318 156.24 183.25 156.292C183.181 156.344 183.137 156.421 183.125 156.506C183.114 156.59 183.138 156.676 183.19 156.743L193.5 169.83C193.53 169.868 193.568 169.899 193.612 169.92C193.656 169.941 193.704 169.952 193.753 169.952C193.83 169.949 193.903 169.918 193.959 169.866H193.939ZM210.017 166.331C210.02 166.247 209.989 166.165 209.931 166.103C209.873 166.041 209.793 166.004 209.708 166L195.564 165.291C195.485 165.296 195.41 165.33 195.354 165.387C195.298 165.443 195.265 165.517 195.262 165.596C195.258 165.675 195.283 165.752 195.333 165.813C195.383 165.875 195.454 165.916 195.533 165.929L209.702 166.637C209.788 166.64 209.871 166.61 209.934 166.552C209.996 166.495 210.034 166.416 210.038 166.331H210.017ZM203.345 176.705C203.35 176.663 203.347 176.62 203.335 176.58C203.323 176.539 203.303 176.501 203.276 176.469C203.249 176.436 203.216 176.409 203.178 176.389C203.14 176.369 203.099 176.357 203.056 176.353L192.22 175.297C192.178 175.293 192.136 175.297 192.095 175.309C192.055 175.321 192.017 175.341 191.985 175.368C191.952 175.394 191.925 175.427 191.905 175.464C191.886 175.501 191.873 175.541 191.869 175.583C191.862 175.666 191.888 175.75 191.942 175.814C191.996 175.879 192.074 175.921 192.158 175.93L202.994 176.99H203.025C203.109 176.996 203.191 176.969 203.254 176.916C203.318 176.863 203.358 176.787 203.366 176.705H203.345ZM189.749 182.233C189.82 182.186 189.87 182.113 189.888 182.03C189.905 181.947 189.889 181.861 189.842 181.79L184.486 173.788C184.436 173.719 184.362 173.671 184.279 173.655C184.195 173.639 184.108 173.655 184.037 173.701C183.965 173.748 183.915 173.821 183.898 173.904C183.88 173.987 183.897 174.074 183.944 174.145L189.3 182.146C189.33 182.19 189.371 182.226 189.419 182.251C189.466 182.276 189.519 182.289 189.573 182.289C189.643 182.293 189.712 182.273 189.769 182.233H189.749ZM202.04 184.911C202.039 184.827 202.005 184.747 201.945 184.687C201.885 184.627 201.805 184.592 201.72 184.589L188.98 184.472C188.895 184.472 188.814 184.505 188.754 184.565C188.694 184.624 188.66 184.704 188.66 184.788C188.659 184.83 188.666 184.872 188.681 184.912C188.697 184.951 188.72 184.987 188.75 185.017C188.78 185.047 188.816 185.071 188.855 185.086C188.895 185.102 188.937 185.11 188.98 185.11L201.72 185.227C201.763 185.229 201.807 185.222 201.848 185.207C201.889 185.193 201.926 185.17 201.958 185.14C201.99 185.111 202.015 185.075 202.033 185.036C202.05 184.996 202.06 184.954 202.06 184.911H202.04ZM184.945 203.74C184.971 203.684 187.143 197.768 193.675 196.355C193.76 196.337 193.833 196.286 193.879 196.215C193.926 196.143 193.942 196.056 193.923 195.973C193.902 195.891 193.85 195.821 193.778 195.776C193.706 195.731 193.619 195.716 193.536 195.733C186.648 197.222 184.362 203.47 184.336 203.531C184.309 203.611 184.315 203.699 184.353 203.775C184.391 203.851 184.457 203.91 184.537 203.939H184.64C184.709 203.945 184.778 203.928 184.836 203.893C184.895 203.857 184.94 203.803 184.965 203.74H184.945ZM186.395 208.417C186.48 208.41 186.559 208.371 186.615 208.307C186.671 208.243 186.7 208.159 186.694 208.075C185.884 196.049 190.59 176.353 198.139 160.186C202.963 149.853 221.875 129.545 222.076 129.341C222.137 129.281 222.171 129.199 222.171 129.114C222.171 129.029 222.137 128.947 222.076 128.887C222.046 128.858 222.011 128.834 221.972 128.818C221.933 128.802 221.891 128.794 221.849 128.794C221.807 128.794 221.765 128.802 221.726 128.818C221.687 128.834 221.652 128.858 221.622 128.887C221.431 129.091 202.442 149.476 197.576 159.9C189.888 176.46 185.244 195.799 186.07 208.116C186.076 208.197 186.113 208.273 186.173 208.328C186.233 208.384 186.312 208.416 186.395 208.417ZM201.828 153.566C201.914 153.561 201.993 153.523 202.05 153.46C202.107 153.397 202.137 153.314 202.133 153.23L200.899 132.6C200.897 132.558 200.887 132.517 200.869 132.479C200.851 132.441 200.825 132.407 200.793 132.379C200.761 132.351 200.724 132.329 200.684 132.316C200.644 132.302 200.601 132.296 200.559 132.299C200.474 132.304 200.394 132.343 200.337 132.406C200.28 132.469 200.25 132.551 200.254 132.636L201.508 153.255C201.512 153.336 201.548 153.413 201.607 153.469C201.667 153.525 201.746 153.556 201.828 153.556V153.566ZM197.979 160.344C198.056 160.309 198.117 160.246 198.148 160.168C198.178 160.09 198.177 160.003 198.144 159.926L190.213 142.193C190.179 142.116 190.115 142.055 190.036 142.025C189.956 141.994 189.868 141.996 189.79 142.03C189.712 142.064 189.651 142.127 189.62 142.205C189.589 142.284 189.591 142.371 189.625 142.448L197.551 160.181C197.576 160.238 197.617 160.286 197.669 160.321C197.721 160.355 197.782 160.374 197.845 160.375C197.898 160.377 197.951 160.367 198 160.344H197.979ZM199.351 157.896L218.335 155.213C218.381 155.212 218.426 155.202 218.468 155.183C218.509 155.163 218.546 155.135 218.576 155.101C218.605 155.066 218.627 155.026 218.64 154.983C218.653 154.939 218.657 154.893 218.65 154.849C218.644 154.804 218.628 154.761 218.604 154.722C218.58 154.684 218.548 154.651 218.51 154.625C218.472 154.6 218.428 154.583 218.383 154.575C218.338 154.568 218.292 154.57 218.247 154.581L199.264 157.264C199.179 157.269 199.1 157.308 199.044 157.371C198.987 157.434 198.959 157.516 198.964 157.6C198.97 157.684 199.009 157.762 199.073 157.818C199.137 157.873 199.22 157.901 199.305 157.896H199.351ZM193.939 169.866C194.006 169.813 194.05 169.737 194.06 169.653C194.071 169.569 194.048 169.484 193.995 169.417L183.706 156.351C183.68 156.317 183.648 156.289 183.611 156.268C183.574 156.247 183.533 156.233 183.49 156.228C183.448 156.222 183.405 156.225 183.364 156.236C183.322 156.247 183.284 156.266 183.25 156.292C183.216 156.318 183.187 156.35 183.166 156.387C183.145 156.423 183.131 156.464 183.125 156.506C183.12 156.547 183.123 156.59 183.134 156.631C183.145 156.672 183.164 156.71 183.19 156.743L193.5 169.83C193.53 169.868 193.568 169.899 193.612 169.92C193.656 169.941 193.704 169.952 193.753 169.952C193.83 169.949 193.903 169.918 193.959 169.866H193.939ZM210.017 166.331C210.02 166.247 209.989 166.165 209.931 166.103C209.873 166.041 209.793 166.004 209.708 166L195.564 165.291C195.485 165.296 195.41 165.33 195.354 165.387C195.298 165.443 195.265 165.517 195.262 165.596C195.258 165.675 195.283 165.752 195.333 165.813C195.383 165.875 195.454 165.916 195.533 165.929L209.702 166.637C209.788 166.64 209.871 166.61 209.934 166.552C209.996 166.495 210.034 166.416 210.038 166.331H210.017ZM203.345 176.705C203.35 176.663 203.347 176.62 203.335 176.58C203.323 176.539 203.303 176.501 203.276 176.469C203.249 176.436 203.216 176.409 203.178 176.389C203.14 176.369 203.099 176.357 203.056 176.353L192.22 175.297C192.178 175.293 192.136 175.297 192.095 175.309C192.055 175.321 192.017 175.341 191.985 175.368C191.952 175.394 191.925 175.427 191.905 175.464C191.886 175.501 191.873 175.541 191.869 175.583C191.862 175.666 191.888 175.75 191.942 175.814C191.996 175.879 192.074 175.921 192.158 175.93L202.994 176.99H203.025C203.109 176.996 203.191 176.969 203.254 176.916C203.318 176.863 203.358 176.787 203.366 176.705H203.345ZM189.749 182.233C189.82 182.186 189.87 182.113 189.888 182.03C189.905 181.947 189.889 181.861 189.842 181.79L184.486 173.788C184.436 173.719 184.362 173.671 184.279 173.655C184.195 173.639 184.108 173.655 184.037 173.701C183.965 173.748 183.915 173.821 183.898 173.904C183.88 173.987 183.897 174.074 183.944 174.145L189.3 182.146C189.33 182.19 189.371 182.226 189.419 182.251C189.466 182.276 189.519 182.289 189.573 182.289C189.643 182.293 189.712 182.273 189.769 182.233H189.749ZM202.04 184.911C202.039 184.827 202.005 184.747 201.945 184.687C201.885 184.627 201.805 184.592 201.72 184.589L188.98 184.472C188.895 184.472 188.814 184.505 188.754 184.565C188.694 184.624 188.66 184.704 188.66 184.788C188.659 184.83 188.666 184.872 188.681 184.912C188.697 184.951 188.72 184.987 188.75 185.017C188.78 185.047 188.816 185.071 188.855 185.086C188.895 185.102 188.937 185.11 188.98 185.11L201.72 185.227C201.763 185.229 201.807 185.222 201.848 185.207C201.889 185.193 201.926 185.17 201.958 185.14C201.99 185.111 202.015 185.075 202.033 185.036C202.05 184.996 202.06 184.954 202.06 184.911H202.04ZM184.945 203.74C184.971 203.684 187.143 197.768 193.675 196.355C193.76 196.337 193.833 196.286 193.879 196.215C193.926 196.143 193.942 196.056 193.923 195.973C193.902 195.891 193.85 195.821 193.778 195.776C193.706 195.731 193.619 195.716 193.536 195.733C186.648 197.222 184.362 203.47 184.336 203.531C184.309 203.611 184.315 203.699 184.353 203.775C184.391 203.851 184.457 203.91 184.537 203.939H184.64C184.709 203.945 184.778 203.928 184.836 203.893C184.895 203.857 184.94 203.803 184.965 203.74H184.945Z" fill="black"/>
<path d="M194.821 199.425H180.213V202.414H181.488L184.124 218.719H190.91L193.546 202.414H194.821V199.425Z" fill="white"/>
<path opacity="0.3" d="M194.821 199.425H180.213V202.414H181.488L184.124 218.719H190.91L193.546 202.414H194.821V199.425Z" fill="white"/>
<path d="M63.3029 109.053L46.311 103.571L44.7991 99.6234L41.3471 99.5163L35.0828 98.3433L35.8362 99.6234L43.7207 105.279L45.666 106.238L63.437 115.413L63.3029 109.053Z" fill="white" stroke="#263238" stroke-width="1.00396" stroke-miterlimit="10"/>
<path d="M44.7991 99.6234L43.1789 98.6646L39.9435 99.8376L40.4802 100.475L44.7991 99.6234Z" fill="white" stroke="#263238" stroke-width="1.00396" stroke-linejoin="round"/>
<path d="M63.3029 109.053L46.311 103.571L44.7991 99.6234L41.3471 99.5163L35.0828 98.3433L35.8362 99.6234L43.7207 105.279L45.666 106.238L63.437 115.413L63.3029 109.053Z" fill="white"/>
<mask id="mask0_102_1504" style="mask-type:luminance" maskUnits="userSpaceOnUse" x="35" y="98" width="29" height="18">
<path d="M63.3029 109.053L46.311 103.571L44.7991 99.6234L41.3471 99.5163L35.0828 98.3433L35.8362 99.6234L43.7207 105.279L45.666 106.238L63.437 115.413L63.3029 109.053Z" fill="white"/>
</mask>
<g mask="url(#mask0_102_1504)">
<path opacity="0.5" d="M63.3029 109.053L46.311 103.571L44.7991 99.6234L41.3471 99.5163L35.0828 98.3433L35.8362 99.6234L43.7207 105.279L45.666 106.238L63.437 115.413L63.3029 109.053Z" fill="white" stroke="#263238" stroke-width="1.00396" stroke-miterlimit="10"/>
</g>
<path d="M63.3029 109.053L46.311 103.571L44.7991 99.6234L41.3471 99.5163L35.0828 98.3433L35.8362 99.6234L43.7207 105.279L45.666 106.238L63.437 115.413L63.3029 109.053Z" stroke="#263238" stroke-width="1.00396" stroke-miterlimit="10"/>
<path d="M44.7991 99.6234L43.1789 98.6646L39.9435 99.8376L40.4802 100.475L44.7991 99.6234Z" fill="white"/>
<mask id="mask1_102_1504" style="mask-type:luminance" maskUnits="userSpaceOnUse" x="39" y="98" width="6" height="3">
<path d="M44.7991 99.6234L43.1789 98.6646L39.9435 99.8376L40.4802 100.475L44.7991 99.6234Z" fill="white"/>
</mask>
<g mask="url(#mask1_102_1504)">
<path opacity="0.5" d="M44.7991 99.6234L43.1789 98.6646L39.9435 99.8376L40.4802 100.475L44.7991 99.6234Z" fill="white" stroke="#263238" stroke-width="1.00396" stroke-linejoin="round"/>
</g>
<path d="M44.7991 99.6234L43.1789 98.6646L39.9435 99.8376L40.4802 100.475L44.7991 99.6234Z" stroke="#263238" stroke-width="1.00396" stroke-linejoin="round"/>
<path d="M66.9097 73.4706C66.9097 73.4706 66.6465 75.7656 67.3019 77.2395C67.9572 78.7134 71.595 83.7063 71.595 83.7063L64.8044 89.0868C64.8044 89.0868 61.9871 83.4768 61.4504 82.569C60.9138 81.6612 60.2688 77.7546 62.018 74.9547C63.7673 72.1548 66.2853 71.4 66.9097 73.4706Z" fill="white"/>
<mask id="mask2_102_1504" style="mask-type:luminance" maskUnits="userSpaceOnUse" x="60" y="72" width="12" height="18">
<path d="M66.9097 73.4706C66.9097 73.4706 66.6465 75.7656 67.3019 77.2395C67.9572 78.7134 71.595 83.7063 71.595 83.7063L64.8044 89.0868C64.8044 89.0868 61.9871 83.4768 61.4504 82.569C60.9138 81.6612 60.2688 77.7546 62.018 74.9547C63.7673 72.1548 66.2853 71.4 66.9097 73.4706Z" fill="white"/>
</mask>
<g mask="url(#mask2_102_1504)">
<g style="mix-blend-mode:multiply" opacity="0.5">
<path d="M63.4215 80.8452L66.3679 86.8836L64.7992 89.0919L61.8374 83.8644L63.4215 80.8452Z" fill="white"/>
</g>
</g>
<path d="M66.9097 73.4706C66.9097 73.4706 66.6465 75.7656 67.3019 77.2395C67.9572 78.7134 71.595 83.7063 71.595 83.7063L64.8044 89.0868C64.8044 89.0868 61.9871 83.4768 61.4504 82.569C60.9138 81.6612 60.2688 77.7546 62.018 74.9547C63.7673 72.1548 66.2853 71.4 66.9097 73.4706Z" stroke="#263238" stroke-width="1.00396" stroke-miterlimit="10"/>
<path d="M69.015 69.2682C68.597 66.7182 65.6404 61.5315 60.9499 61.7304C57.9055 61.863 56.4814 62.4699 55.1604 63.2094C54.0836 63.8364 53.08 64.5787 52.1676 65.4228C49.8766 68.1411 49.0716 68.8857 49.5154 70.9665C49.4789 71.7965 49.6105 72.6252 49.9024 73.4043C50.6041 75.2556 51.084 76.4643 51.6929 77.3466C51.5071 78.2085 51.0221 80.4831 50.9963 81.0033C50.9705 81.5235 52.5443 81.1614 53.3389 80.9625C54.8147 84.2265 57.5185 86.4909 58.3596 86.751C59.825 87.2049 62.1419 84.8232 63.37 82.977C64.598 81.1308 63.6692 79.0551 63.6744 78.2289C63.6796 77.4027 66.435 75.5871 67.4567 75.0108C68.4784 74.4345 69.4278 71.8131 69.015 69.2682Z" fill="white"/>
<mask id="mask3_102_1504" style="mask-type:luminance" maskUnits="userSpaceOnUse" x="49" y="61" width="21" height="26">
<path d="M69.015 69.2682C68.597 66.7182 65.6404 61.5315 60.9499 61.7304C57.9055 61.863 56.4814 62.4699 55.1604 63.2094C54.0836 63.8364 53.08 64.5787 52.1676 65.4228C49.8766 68.1411 49.0716 68.8857 49.5154 70.9665C49.4789 71.7965 49.6105 72.6252 49.9024 73.4043C50.6041 75.2556 51.084 76.4643 51.6929 77.3466C51.5071 78.2085 51.0221 80.4831 50.9963 81.0033C50.9705 81.5235 52.5443 81.1614 53.3389 80.9625C54.8147 84.2265 57.5185 86.4909 58.3596 86.751C59.825 87.2049 62.1419 84.8232 63.37 82.977C64.598 81.1308 63.6692 79.0551 63.6744 78.2289C63.6796 77.4027 66.435 75.5871 67.4567 75.0108C68.4784 74.4345 69.4278 71.8131 69.015 69.2682Z" fill="white"/>
</mask>
<g mask="url(#mask3_102_1504)">
<g style="mix-blend-mode:multiply" opacity="0.5">
<path d="M49.5359 70.9665C49.4995 71.7964 49.6311 72.6252 49.9229 73.4043C50.6247 75.2556 51.1046 76.4643 51.7135 77.3466C51.5277 78.2085 51.0427 80.4831 51.0169 81.0033C50.9911 81.5235 52.5649 81.1614 53.3595 80.9625C54.8353 84.2265 57.5391 86.4909 58.3802 86.751C59.8456 87.2049 62.1625 84.8232 63.3905 82.977C63.6974 82.5161 63.8965 81.9934 63.9736 81.447C63.9065 81.2073 63.8601 81.0594 63.8601 81.0594C63.8601 81.0594 63.1687 83.6859 61.7961 83.3442C60.4235 83.0025 58.3234 80.2842 57.1521 79.3458C55.9808 78.4074 56.4607 77.1732 56.2285 75.7758C55.9963 74.3784 52.5287 73.1493 52.2965 72.3486C52.0643 71.5479 52.8745 68.2329 52.8745 68.2329C52.8745 68.2329 54.1903 66.4989 53.9065 67.2129C53.7059 67.832 53.6331 68.4846 53.6925 69.132C53.7519 69.7794 53.9422 70.4084 54.2522 70.9818C54.4697 71.4342 54.8147 71.8149 55.2459 72.0782C55.677 72.3414 56.1759 72.4761 56.6825 72.4659L57.9416 66.3L55.2842 64.1274L52.1882 65.4024C49.8765 68.1411 49.087 68.8857 49.5359 70.9665Z" fill="white"/>
</g>
</g>
<path d="M69.015 69.2682C68.597 66.7182 65.6404 61.5315 60.9499 61.7304C57.9055 61.863 56.4814 62.4699 55.1604 63.2094C54.0836 63.8364 53.08 64.5787 52.1676 65.4228C49.8766 68.1411 49.0716 68.8857 49.5154 70.9665C49.4789 71.7965 49.6105 72.6252 49.9024 73.4043C50.6041 75.2556 51.084 76.4643 51.6929 77.3466C51.5071 78.2085 51.0221 80.4831 50.9963 81.0033C50.9705 81.5235 52.5443 81.1614 53.3389 80.9625C54.8147 84.2265 57.5185 86.4909 58.3596 86.751C59.825 87.2049 62.1419 84.8232 63.37 82.977C64.598 81.1308 63.6692 79.0551 63.6744 78.2289C63.6796 77.4027 66.435 75.5871 67.4567 75.0108C68.4784 74.4345 69.4278 71.8131 69.015 69.2682Z" stroke="#263238" stroke-miterlimit="10"/>
<path d="M52.3327 75.8064L52.8487 77.265C52.8487 77.265 53.9581 77.6271 55.31 76.1685" stroke="#263238" stroke-miterlimit="10" stroke-linecap="round"/>
<path d="M56.1459 82.62C56.1459 82.62 57.374 82.4976 57.8694 80.7942" stroke="#263238" stroke-miterlimit="10" stroke-linecap="round"/>
<path d="M51.471 74.5875C51.471 74.5875 51.8374 73.491 54.051 73.491" stroke="#263238" stroke-miterlimit="10" stroke-linecap="round"/>
<path d="M62.8178 59.7006C61.2093 59.472 59.5872 59.3493 57.9623 59.3334C57.9623 59.3334 53.1016 56.5641 48.4318 59.517C43.762 62.4699 46.0066 67.6413 46.0066 68.9316C46.0066 70.2219 44.5102 70.227 45.4441 71.8896C46.3781 73.5522 49.536 72.6342 49.536 72.6342C49.5694 72.0071 49.737 71.3942 50.0279 70.8359C50.3188 70.2776 50.7262 69.7868 51.2233 69.3957C52.9055 68.1054 54.2471 67.8249 54.8044 68.1972C54.8044 68.1972 54.4328 70.9665 54.9901 72.0732C54.9901 72.0732 56.858 72.9963 57.4205 72.9963C57.9829 72.9963 57.0541 73.7766 58.9169 74.4702C59.2562 74.5907 59.6193 74.6317 59.9774 74.5901C60.3355 74.5485 60.679 74.4254 60.9809 74.2305C61.2544 73.1085 61.8529 71.4204 62.9675 71.8131C64.6032 72.3894 66.0944 76.3674 63.8808 77.724C66.5434 78.2034 69.7684 73.5471 69.9593 69.3039C70.1502 65.0607 65.5836 60.18 62.8178 59.7006Z" fill="#263238"/>
<path d="M54.8869 66.3765C54.8869 66.3765 56.2595 65.6472 57.9416 67.2078C59.6238 68.7684 62.8952 70.8543 67.2296 69.7068" stroke="white" stroke-width="0.5" stroke-linecap="round" stroke-linejoin="round"/>
<path d="M54.696 65.127C54.696 65.127 55.6403 63.6684 57.2192 63.6684C58.7982 63.6684 62.4876 65.8563 65.4339 65.8563" stroke="white" stroke-width="0.5" stroke-linecap="round" stroke-linejoin="round"/>
<path d="M53.6227 67.9371C53.6227 67.9371 51.8322 65.7543 50.15 67.524C48.4679 69.2937 49.536 70.9665 49.536 70.9665" stroke="white" stroke-width="0.5" stroke-linecap="round" stroke-linejoin="round"/>
<path d="M46.4658 69.3957C47.4919 68.4811 48.1297 67.2166 48.2512 65.8563C48.4627 63.5664 51.6258 61.5876 53.6227 63.4644" stroke="white" stroke-width="0.5" stroke-linecap="round" stroke-linejoin="round"/>
<path d="M49.7269 61.0674C49.7269 61.0674 52.89 58.0482 55.5216 61.8987" stroke="white" stroke-width="0.5" stroke-linecap="round" stroke-linejoin="round"/>
<path d="M75.4702 209.513C75.4702 209.513 77.4155 212.502 77.1988 214.424L76.9872 216.347C76.9872 216.347 69.8509 218.28 68.3391 218.28C66.8272 218.28 58.824 217.53 58.824 217.53L58.4783 216.174C58.4541 216.073 58.4655 215.968 58.5106 215.875C58.5557 215.782 58.6317 215.708 58.726 215.664L65.8623 212.374L68.112 209.941L75.4702 209.513Z" fill="white" stroke="#263238" stroke-width="1.00396" stroke-miterlimit="10"/>
<path d="M69.4226 216.775C71.3576 216.923 75.0315 215.755 77.1626 215.011L77.013 216.347C77.013 216.347 69.8509 218.28 68.339 218.28C66.8271 218.28 58.824 217.53 58.824 217.53L58.5763 216.561C59.856 216.566 66.8633 216.582 69.4226 216.775Z" fill="white" stroke="#263238" stroke-width="1.00396" stroke-miterlimit="10"/>
<path d="M65.8725 212.374L55.4855 216.842C55.4855 216.842 54.5979 219.04 55.4855 219.479C56.373 219.917 75.723 219.479 75.723 219.479C75.723 219.479 77.0594 216.005 74.949 213.675C72.8385 211.344 65.8725 212.374 65.8725 212.374Z" fill="white" stroke="#263238" stroke-width="1.00396" stroke-miterlimit="10"/>
<path d="M75.723 219.478C75.723 219.478 56.373 219.917 55.4855 219.478C55.0572 219.264 55.0417 218.647 55.1397 218.061H76.0635C75.9952 218.543 75.8811 219.017 75.723 219.478Z" fill="white" stroke="#263238" stroke-width="1.00396" stroke-miterlimit="10"/>
<path d="M60.9602 134.747C60.9602 134.747 58.2461 146.635 57.2192 154.071C56.1924 161.507 55.5887 176.404 55.8054 178.112C56.0221 179.821 66.8271 208.447 66.8271 208.447L67.9056 210.997L75.4701 209.503C75.4701 209.503 72.0129 198.609 70.7178 192.627C69.4226 186.645 66.5898 176.817 66.5898 175.108C66.5898 173.4 73.2978 140.77 73.7776 138.628C74.2575 136.486 76.4351 133.197 76.4351 133.197L61.9509 132.906L60.9602 134.747Z" fill="white" stroke="#263238" stroke-width="1.00396" stroke-miterlimit="10"/>
<path d="M60.9603 134.747C60.9603 134.747 59.371 145.605 60.0263 153.153C60.6816 160.701 62.0903 176.771 62.0903 179.163C62.0903 181.555 65.9964 195.84 66.2183 200.328C66.564 206.81 66.079 210.018 66.079 210.018L65.8468 212.369C65.8468 212.369 70.4031 213.012 71.3989 213.292C72.5492 213.585 73.7362 213.712 74.9232 213.67C74.9232 213.67 76.5796 206.463 76.5796 200.323C76.5796 194.182 75.2019 181.545 74.5156 176.424C73.8293 171.304 75.9913 151.552 77.2194 147.864C78.4475 144.177 81.1307 136.369 79.3247 132.381C77.5187 128.392 60.9603 134.747 60.9603 134.747Z" fill="white" stroke="#263238" stroke-width="1.00396" stroke-miterlimit="10"/>
<path d="M81.3319 130.381L81.1668 135.237C81.1668 135.237 78.2256 135.813 74.2627 136.491C70.9913 137.052 62.7766 136.343 60.0108 136.078C59.7588 136.056 59.5257 135.937 59.3624 135.746C59.1991 135.555 59.1187 135.308 59.1388 135.058L59.4071 130.672L81.3319 130.381Z" fill="#263238"/>
<path d="M69.8355 81.9825C69.8355 81.9825 65.1915 86.9448 63.4422 90.0303C61.693 93.1158 61.0015 97.8435 60.3462 101.566C59.6909 105.289 61.4659 114.031 60.9654 118.045L59.3813 130.687C59.3813 130.687 59.0407 131.544 60.1811 132.483C61.3215 133.421 66.8891 133.763 71.9201 134.013C73.7571 134.104 79.2421 132.937 80.14 132.88C81.2236 132.814 81.2597 131.452 81.3061 130.381C81.5229 125.348 82.4413 111.93 83.0451 106.085C84.2886 94.1664 77.4826 82.6608 69.8355 81.9825Z" fill="white" stroke="#263238" stroke-width="1.00396" stroke-miterlimit="10"/>
<g style="mix-blend-mode:multiply">
<path d="M82.4774 112.863C82.6838 110.216 82.8902 107.814 83.0708 106.085C83.1224 105.575 83.1534 105.065 83.1792 104.555L70.8416 106.595L60.243 103.025C60.2441 105.193 60.3682 107.358 60.6145 109.512L71.0119 112.389L82.4774 112.863Z" fill="white"/>
</g>
<g style="mix-blend-mode:multiply">
<path d="M69.3762 82.4823C68.6745 83.2524 67.2813 84.8181 65.9551 86.4807L73.788 94.35L76.368 93.33L69.3762 82.4823Z" fill="white"/>
</g>
<path d="M69.8354 81.9825C69.8354 81.9825 65.1914 86.9448 63.4422 90.0303C62.9235 90.968 62.5033 91.9558 62.1883 92.9781L71.5279 82.314C70.9761 82.1488 70.4092 82.0378 69.8354 81.9825Z" fill="#263238"/>
<g style="mix-blend-mode:multiply">
<path d="M60.7074 99.5571L70.8416 102.852L83.1482 101.454C82.9554 98.4242 82.2743 95.444 81.1307 92.6262L71.208 96.5583L62.338 92.5854C61.6127 94.8641 61.0675 97.195 60.7074 99.5571Z" fill="white"/>
</g>
<g style="mix-blend-mode:multiply">
<path d="M78.1533 125.348C73.0133 126.201 67.7393 125.775 62.8075 124.109L60.3359 123.272L59.567 129.392L62.3844 130.172C67.7403 131.652 73.3382 132.079 78.8603 131.427L81.1358 131.157C81.2542 130.909 81.3209 130.64 81.3319 130.366C81.3938 129.004 81.5022 127.026 81.6415 124.756L78.1533 125.348Z" fill="white"/>
</g>
<g style="mix-blend-mode:multiply">
<path d="M79.5311 117.014C74.3908 117.871 69.1155 117.443 64.1852 115.77L61.0376 114.704C61.1157 115.815 61.1002 116.931 60.9912 118.039L60.6248 120.982L63.7621 121.849C69.116 123.331 74.7121 123.759 80.2328 123.109L81.7808 122.925C81.9098 120.885 82.0595 118.713 82.2194 116.566L79.5311 117.014Z" fill="white"/>
</g>
<path d="M31.1206 95.4475L41.0977 103.376L41.5277 102.847L31.5506 94.9189L31.1206 95.4475Z" fill="#263238"/>
<path d="M74.6394 87.4854C74.6394 87.4854 78.2979 89.9487 78.3804 95.7678C78.4165 98.3178 78.1482 100.699 77.5548 104.876C76.9614 109.053 73.2772 122.655 70.4082 124.307C67.5393 125.96 63.0862 122.839 63.0862 122.839L41.5483 108.706L36.3419 104.55L33.7619 99.7356L34.572 98.2056L40.924 103.02L37.5029 99.8937L38.1737 99.0522L39.4121 99.9039L43.0241 101.24L43.8136 106.34L44.9281 107.095L65.532 114.536C65.532 114.536 65.274 103.576 65.4649 101.48C65.6559 99.3837 65.919 94.1154 68.1894 90.2955" fill="white"/>
<mask id="mask4_102_1504" style="mask-type:luminance" maskUnits="userSpaceOnUse" x="33" y="87" width="46" height="38">
<path d="M74.6394 87.4854C74.6394 87.4854 78.2979 89.9487 78.3804 95.7678C78.4165 98.3178 78.1482 100.699 77.5548 104.876C76.9614 109.053 73.2772 122.655 70.4082 124.307C67.5393 125.96 63.0862 122.839 63.0862 122.839L41.5483 108.706L36.3419 104.55L33.7619 99.7356L34.572 98.2056L40.924 103.02L37.5029 99.8937L38.1737 99.0522L39.4121 99.9039L43.0241 101.24L43.8136 106.34L44.9281 107.095L65.532 114.536C65.532 114.536 65.274 103.576 65.4649 101.48C65.6559 99.3837 65.919 94.1154 68.1894 90.2955" fill="white"/>
</mask>
<g mask="url(#mask4_102_1504)">
<g style="mix-blend-mode:multiply" opacity="0.5">
<path d="M65.3874 106.253C65.3874 110.038 65.5164 114.536 65.5164 114.536L44.9332 107.125L43.8186 106.371L43.0291 101.271L39.4171 99.9345L38.1839 99.0675L37.5131 99.909L40.9238 103.02L34.5719 98.2056L33.803 99.7101L36.383 104.524L41.5895 108.706L42.9001 109.568L71.3575 118.631L65.3874 106.253Z" fill="white"/>
</g>
</g>
<path d="M74.6394 87.4854C74.6394 87.4854 78.2979 89.9487 78.3804 95.7678C78.4165 98.3178 78.1482 100.699 77.5548 104.876C76.9614 109.053 73.2772 122.655 70.4082 124.307C67.5393 125.96 63.0862 122.839 63.0862 122.839L41.5483 108.706L36.3419 104.55L33.7619 99.7356L34.572 98.2056L40.924 103.02L37.5029 99.8937L38.1737 99.0522L39.4121 99.9039L43.0241 101.24L43.8136 106.34L44.9281 107.095L65.532 114.536C65.532 114.536 65.274 103.576 65.4649 101.48C65.6559 99.3837 65.919 94.1154 68.1894 90.2955" stroke="#263238" stroke-width="1.00396" stroke-miterlimit="10"/>
<path d="M65.532 114.536L73.3959 120.146L75.4341 116.576C75.4341 116.576 76.8428 115.479 77.0492 114.653C77.2556 113.827 76.9924 112.486 77.2039 111.659C77.4155 110.833 78.4682 110.058 78.5662 108.059C78.6642 106.06 78.5662 104.392 78.5662 104.392C78.5662 104.392 80.269 97.4712 80.0832 94.4622C79.8975 91.4532 76.9614 86.1339 74.6085 86.0166C72.2555 85.8993 69.1956 86.2512 66.822 89.8008C64.4484 93.3504 64.9335 103.714 64.562 104.361C64.1904 105.009 64.7064 108.207 64.7064 108.207C64.5002 108.359 64.3291 108.552 64.2046 108.775C64.08 108.997 64.0048 109.244 63.984 109.497C63.9428 110.328 64.8509 112.373 64.8509 112.373L65.532 114.536Z" fill="white" stroke="#263238" stroke-width="1.00396" stroke-miterlimit="10"/>
<g style="mix-blend-mode:multiply">
<path d="M64.7683 101.699C64.7845 102.589 64.7171 103.479 64.5671 104.356C64.2368 104.938 64.6135 107.564 64.6961 108.1C69.1191 109.457 73.7961 109.806 78.3752 109.12C78.4736 108.765 78.5324 108.401 78.5507 108.033C78.6539 106.039 78.5507 104.366 78.5507 104.366C78.5507 104.366 78.7003 103.749 78.9067 102.811C74.1644 103.109 69.4033 102.734 64.7683 101.699Z" fill="white"/>
</g>
<g style="mix-blend-mode:multiply">
<path d="M66.5021 90.3669C65.7642 91.8306 65.3514 94.0287 65.114 96.2574C69.7983 98.0243 74.8488 98.6319 79.8252 98.0271C80.0237 96.8476 80.1118 95.6526 80.0883 94.4571C79.999 93.5121 79.7731 92.5847 79.4175 91.7031C75.0724 91.8033 70.732 91.3543 66.5021 90.3669Z" fill="white"/>
</g>
<path d="M64.8509 112.429L65.5165 114.536L73.3804 120.146L75.4186 116.576C75.4186 116.576 76.8272 115.479 77.0336 114.653C77.0705 114.509 77.0929 114.363 77.1007 114.214C72.9567 114.144 68.8393 113.544 64.8509 112.429Z" fill="#263238"/>
<path d="M70.5424 213.226C70.5424 213.226 70.7178 208.809 71.5744 202.353C72.4309 195.896 70.3721 186.726 70.0264 185.196C69.6806 183.666 70.2018 180.27 69.8561 179.076C69.5104 177.883 67.8385 172.793 68.8241 166.887C69.8096 160.982 70.6094 145.37 70.6094 145.37C70.6094 145.37 68.1275 143.376 67.3999 140.78C66.6724 138.185 67.2296 137.368 67.2296 137.368" stroke="#263238" stroke-width="1.00396" stroke-miterlimit="10"/>
<path d="M71.6931 137.608L70.7385 142.831" stroke="#263238" stroke-width="1.00396" stroke-miterlimit="10"/>
</svg>
