<svg width="46" height="47" viewBox="0 0 46 47" fill="none" xmlns="http://www.w3.org/2000/svg">
<path d="M22.7647 1V6.97375M22.7647 1L44.7647 11.5022M22.7647 1L1 11.5022V17.3796M22.7647 6.97375L38.6471 14.3928M22.7647 6.97375L7.24728 14.3928M1 17.3796L23.1176 27.6892M1 17.3796L7.24728 14.3928M23.1176 27.6892L44.7647 17.3796V11.5022M23.1176 27.6892V21.8118M44.7647 11.5022L38.6471 14.3928M38.6471 14.3928L23.1176 21.8118M23.1176 21.8118L7.24728 14.3928" stroke="white"/>
<path d="M22.7647 19V24.9737M22.7647 19L44.7647 29.5022M22.7647 19L1 29.5022V35.3796M22.7647 24.9737L38.6471 32.3928M22.7647 24.9737L7.24728 32.3928M1 35.3796L23.1176 45.6892M1 35.3796L7.24728 32.3928M23.1176 45.6892L44.7647 35.3796V29.5022M23.1176 45.6892V39.8118M44.7647 29.5022L38.6471 32.3928M38.6471 32.3928L23.1176 39.8118M23.1176 39.8118L7.24728 32.3928" stroke="white"/>
<path d="M1 26.2833V20.2132L22.8824 10M1 26.2833L22.8824 16.0701M1 26.2833L7.58824 23.2964L23.2353 30.8118M1 26.2833L23.2353 36.5928M22.8824 16.0701L38.6471 23.2964M22.8824 16.0701V10M38.6471 23.2964L23.2353 30.8118M38.6471 23.2964L45 20.5022M23.2353 30.8118V36.5928M23.2353 36.5928L45 26.2833V20.5022M45 20.5022L22.8824 10" stroke="white"/>
</svg>
