<svg width="60" height="60" viewBox="0 0 60 60" fill="none" xmlns="http://www.w3.org/2000/svg">
<g clip-path="url(#clip0_57_11)">
<path fill-rule="evenodd" clip-rule="evenodd" d="M32.5462 56.7857H20.0893C17.2783 56.7857 15 54.6273 15 51.9643V38.5752C15 36.2448 16.7592 34.2488 19.1783 33.8325C22.7645 33.2138 28.948 32.1482 32.4461 31.5472C34.3715 31.2145 36.3428 31.2145 38.2682 31.5472C41.7663 32.1482 47.9497 33.2138 51.536 33.8325C53.9551 34.2488 55.7143 36.2448 55.7143 38.5752C55.7143 42.0804 55.7143 48.2132 55.7143 51.9643C55.7143 54.6273 53.436 56.7857 50.625 56.7857H32.5462ZM48.6368 36.6L48.6436 36.6081C48.9404 37.0291 49.01 37.5579 48.8319 38.0352L47.6342 41.2495C47.4781 41.6689 47.1439 42.0097 46.713 42.1881L44.4602 43.1186L45.3559 44.8173C45.607 45.2914 45.5934 45.8523 45.322 46.3168L41.0673 53.5714H50.625C51.5614 53.5714 52.3214 52.8514 52.3214 51.9643C52.3214 48.2132 52.3214 42.0804 52.3214 38.5752C52.3214 37.799 51.7345 37.1336 50.9287 36.9938L48.6368 36.6ZM43.9971 35.7997L37.6609 34.7084C36.1375 34.4464 34.5768 34.4464 33.0534 34.7084L26.7172 35.7997L25.3635 37.7234L26.0336 39.5202L29.25 40.8477C29.6758 41.0245 30.0066 41.3588 30.1661 41.7734C30.3255 42.188 30.2967 42.6461 30.088 43.0398L28.792 45.4956L33.5284 53.5714H37.1859L41.9223 45.4956L40.6263 43.0398C40.4176 42.6461 40.3887 42.188 40.5482 41.7734C40.7077 41.3588 41.0385 41.0245 41.4643 40.8477L44.6807 39.5202L45.3508 37.7234L43.9971 35.7997ZM22.0775 36.6L19.7856 36.9938C18.9798 37.1336 18.3929 37.799 18.3929 38.5752V51.9643C18.3929 52.8514 19.1529 53.5714 20.0893 53.5714H29.647L25.3923 46.3168C25.1209 45.8523 25.1073 45.2914 25.3584 44.8173L26.2541 43.1186L24.0013 42.1881C23.5704 42.0097 23.2362 41.6689 23.0801 41.2495L21.8824 38.0352C21.7043 37.5579 21.7738 37.0291 22.0707 36.6081L22.0775 36.6ZM47.2321 45.5357V48.75C47.2321 49.6372 47.9921 50.3572 48.9286 50.3572C49.865 50.3572 50.625 49.6372 50.625 48.75V45.5357C50.625 44.6486 49.865 43.9286 48.9286 43.9286C47.9921 43.9286 47.2321 44.6486 47.2321 45.5357ZM35.3571 8.57144C29.2721 8.57144 24.3304 13.253 24.3304 19.0179C24.3304 24.7827 29.2721 29.4643 35.3571 29.4643C41.4422 29.4643 46.3839 24.7827 46.3839 19.0179C46.3839 13.253 41.4422 8.57144 35.3571 8.57144ZM35.3571 11.7857C39.5711 11.7857 42.9911 15.0257 42.9911 19.0179C42.9911 23.01 39.5711 26.25 35.3571 26.25C31.1432 26.25 27.7232 23.01 27.7232 19.0179C27.7232 15.0257 31.1432 11.7857 35.3571 11.7857Z" fill="#02043E"/>
</g>
<defs>
<clipPath id="clip0_57_11">
<rect width="60" height="60" fill="white"/>
</clipPath>
</defs>
</svg>
