<svg width="56" height="56" viewBox="0 0 56 56" fill="none" xmlns="http://www.w3.org/2000/svg">
<g clip-path="url(#clip0_57_11)">
<path fill-rule="evenodd" clip-rule="evenodd" d="M30.3764 53H18.75C16.1264 53 14 50.9855 14 48.5V36.0035C14 33.8285 15.6419 31.9655 17.8997 31.577C21.2469 30.9995 27.0182 30.005 30.283 29.444C32.0801 29.1335 33.9199 29.1335 35.717 29.444C38.9818 30.005 44.7531 30.9995 48.1003 31.577C50.3581 31.9655 52 33.8285 52 36.0035C52 39.275 52 44.999 52 48.5C52 50.9855 49.8736 53 47.25 53H30.3764ZM45.3943 34.16L45.4007 34.1675C45.6778 34.5605 45.7427 35.054 45.5764 35.4995L44.4586 38.4995C44.3129 38.891 44.001 39.209 43.5988 39.3755L41.4962 40.244L42.3322 41.8295C42.5665 42.272 42.5538 42.7955 42.3005 43.229L38.3295 50H47.25C48.124 50 48.8333 49.328 48.8333 48.5C48.8333 44.999 48.8333 39.275 48.8333 36.0035C48.8333 35.279 48.2855 34.658 47.5334 34.5275L45.3943 34.16ZM41.0639 33.413L35.1502 32.3945C33.7283 32.15 32.2717 32.15 30.8498 32.3945L24.9361 33.413L23.6726 35.2085L24.298 36.8855L27.3 38.1245C27.6974 38.2895 28.0062 38.6015 28.155 38.9885C28.3038 39.3755 28.2769 39.803 28.0822 40.1705L26.8725 42.4625L31.2932 50H34.7068L39.1275 42.4625L37.9178 40.1705C37.7231 39.803 37.6962 39.3755 37.845 38.9885C37.9938 38.6015 38.3026 38.2895 38.7 38.1245L41.702 36.8855L42.3274 35.2085L41.0639 33.413ZM20.6057 34.16L18.4666 34.5275C17.7145 34.658 17.1667 35.279 17.1667 36.0035V48.5C17.1667 49.328 17.876 50 18.75 50H27.6705L23.6995 43.229C23.4462 42.7955 23.4335 42.272 23.6678 41.8295L24.5038 40.244L22.4012 39.3755C21.999 39.209 21.6871 38.891 21.5414 38.4995L20.4236 35.4995C20.2573 35.054 20.3222 34.5605 20.5993 34.1675L20.6057 34.16ZM44.0833 42.5V45.5C44.0833 46.328 44.7927 47 45.6667 47C46.5407 47 47.25 46.328 47.25 45.5V42.5C47.25 41.672 46.5407 41 45.6667 41C44.7927 41 44.0833 41.672 44.0833 42.5ZM33 8C27.3206 8 22.7083 12.3695 22.7083 17.75C22.7083 23.1305 27.3206 27.5 33 27.5C38.6794 27.5 43.2917 23.1305 43.2917 17.75C43.2917 12.3695 38.6794 8 33 8ZM33 11C36.933 11 40.125 14.024 40.125 17.75C40.125 21.476 36.933 24.5 33 24.5C29.067 24.5 25.875 21.476 25.875 17.75C25.875 14.024 29.067 11 33 11Z" fill="white"/>
</g>
<defs>
<clipPath id="clip0_57_11">
<rect width="56" height="56" fill="white"/>
</clipPath>
</defs>
</svg>
